ply
format ascii 1.0
comment Created by meshio v5.3.4, 2022-09-24T16:24:40.863521
element vertex 30
property double x
property double y
property double z
element face 20
property list uint8 int32 vertex_indices
end_header
4.0 0.0 0.0
1.2360679774997898 0.9510565162951535 0.0
-3.2360679774997894 0.5877852522924732 0.0
-3.23606797749979 -0.587785252292473 0.0
1.236067977499789 -0.9510565162951536 0.0
4.0 -2.4492935982947064e-16 0.0
4.0 0.0 3.75
1.2360679774997898 0.9510565162951535 3.75
-3.2360679774997894 0.5877852522924732 3.75
-3.23606797749979 -0.587785252292473 3.75
1.236067977499789 -0.9510565162951536 3.75
4.0 -2.4492935982947064e-16 3.75
4.0 0.0 7.5
1.2360679774997898 0.9510565162951535 7.5
-3.2360679774997894 0.5877852522924732 7.5
-3.23606797749979 -0.587785252292473 7.5
1.236067977499789 -0.9510565162951536 7.5
4.0 -2.4492935982947064e-16 7.5
4.0 0.0 11.25
1.2360679774997898 0.9510565162951535 11.25
-3.2360679774997894 0.5877852522924732 11.25
-3.23606797749979 -0.587785252292473 11.25
1.236067977499789 -0.9510565162951536 11.25
4.0 -2.4492935982947064e-16 11.25
4.0 0.0 15.0
1.2360679774997898 0.9510565162951535 15.0
-3.2360679774997894 0.5877852522924732 15.0
-3.23606797749979 -0.587785252292473 15.0
1.236067977499789 -0.9510565162951536 15.0
4.0 -2.4492935982947064e-16 15.0
4 0 1 7 6
4 1 2 8 7
4 2 3 9 8
4 3 4 10 9
4 4 5 11 10
4 6 7 13 12
4 7 8 14 13
4 8 9 15 14
4 9 10 16 15
4 10 11 17 16
4 12 13 19 18
4 13 14 20 19
4 14 15 21 20
4 15 16 22 21
4 16 17 23 22
4 18 19 25 24
4 19 20 26 25
4 20 21 27 26
4 21 22 28 27
4 22 23 29 28
