ply
format ascii 1.0
comment Created by meshio v5.3.4, 2024-03-06T19:54:57.852906
element vertex 32
property double x
property double y
property double z
element face 29
property list uint8 int32 vertex_indices
end_header
4.0 0.0 0.0
1.2360679774997898 0.9510565162951535 0.0
-3.2360679774997894 0.5877852522924732 0.0
-3.23606797749979 -0.587785252292473 0.0
1.236067977499789 -0.9510565162951536 0.0
4.0 -2.4492935982947064e-16 0.0
4.0 0.0 3.75
1.2360679774997898 0.9510565162951535 3.75
-3.2360679774997894 0.5877852522924732 3.75
-3.23606797749979 -0.587785252292473 3.75
1.236067977499789 -0.9510565162951536 3.75
4.0 -2.4492935982947064e-16 3.75
4.0 0.0 7.5
1.2360679774997898 0.9510565162951535 7.5
-3.2360679774997894 0.5877852522924732 7.5
-3.23606797749979 -0.587785252292473 7.5
1.236067977499789 -0.9510565162951536 7.5
4.0 -2.4492935982947064e-16 7.5
4.0 0.0 11.25
1.2360679774997898 0.9510565162951535 11.25
-3.2360679774997894 0.5877852522924732 11.25
-3.23606797749979 -0.587785252292473 11.25
1.236067977499789 -0.9510565162951536 11.25
4.0 -2.4492935982947064e-16 11.25
4.0 0.0 15.0
1.2360679774997898 0.9510565162951535 15.0
-3.2360679774997894 0.5877852522924732 15.0
-3.23606797749979 -0.587785252292473 15.0
1.236067977499789 -0.9510565162951536 15.0
4.0 -2.4492935982947064e-16 15.0
-8.881784197001253e-17 2.2204460492503132e-17 0.0
-1.0000000000000002 2.7755575615628914e-17 15.0
4 6 7 1 0
4 7 8 2 1
4 8 5 3 2
4 5 10 0 3
4 10 11 5 0
4 12 13 7 6
4 13 10 8 7
4 10 15 5 8
4 15 16 10 5
4 16 17 11 10
4 18 15 13 12
4 15 20 10 13
4 20 21 15 10
4 21 22 16 15
4 22 23 17 16
4 20 25 15 18
4 25 26 20 15
4 26 27 21 20
4 27 28 22 21
4 28 25 23 22
3 30 1 0
3 30 2 1
3 30 3 2
3 30 4 3
3 30 0 4
3 31 25 26
3 31 26 27
3 31 27 28
3 31 28 25
