ply
format ascii 1.0
comment Created by meshio v5.3.4, 2024-03-08T20:23:37.969730
element vertex 254
property float x
property float y
property float z
element face 248
property list uint8 int32 vertex_indices
end_header
3.2624831199645996 0.6127675771713257 0.02199999988079071
2.7068777084350586 0.8257193565368652 0.02199999988079071
2.5709564685821533 0.8255862593650818 0.02199999988079071
2.1583364009857178 0.7903037071228027 0.02199999988079071
1.4816261529922485 0.6798732876777649 0.02199999988079071
1.363186240196228 0.662667989730835 0.02199999988079071
1.1071577072143555 0.6317570209503174 0.02199999988079071
1.0839284658432007 0.4099506139755249 0.02199999988079071
1.210442066192627 0.339753121137619 0.02199999988079071
1.7606568336486816 0.32440534234046936 0.02199999988079071
2.0391318798065186 0.37581539154052734 0.02199999988079071
2.4642627239227295 0.39141103625297546 0.02199999988079071
3.0972659587860107 0.39999887347221375 0.02199999988079071
3.2624831199645996 0.6127675771713257 0.02199999988079071
3.2015275955200195 0.7134249210357666 0.8140000104904175
2.5133180618286133 0.808234453201294 0.8140000104904175
2.380509853363037 0.8117756843566895 0.8140000104904175
2.0088586807250977 0.8152021765708923 0.8140000104904175
1.421633243560791 0.736632227897644 0.8140000104904175
1.3044875860214233 0.7124941945075989 0.8140000104904175
1.0358765125274658 0.6784078478813171 0.8140000104904175
1.1175715923309326 0.450074166059494 0.8140000104904175
1.2578556537628174 0.396231472492218 0.8140000104904175
1.7868565320968628 0.49176883697509766 0.8140000104904175
2.065027952194214 0.5196093916893005 0.8140000104904175
2.582850933074951 0.4896297752857208 0.8140000104904175
3.170896530151367 0.4715844392776489 0.8140000104904175
3.2015275955200195 0.7134249210357666 0.8140000104904175
3.2317516803741455 0.7282257080078125 1.694000005722046
2.5750646591186523 0.8279963731765747 1.694000005722046
2.4479448795318604 0.828848659992218 1.694000005722046
2.096736431121826 0.8205907940864563 1.694000005722046
1.4818495512008667 0.775113582611084 1.694000005722046
1.3560041189193726 0.7633216977119446 1.694000005722046
1.0939992666244507 0.7299161553382874 1.694000005722046
1.1504552364349365 0.5106906294822693 1.694000005722046
1.2950224876403809 0.45489585399627686 1.694000005722046
1.834793210029602 0.4924004077911377 1.694000005722046
2.1299374103546143 0.5161303877830505 1.694000005722046
2.5767550468444824 0.4911680519580841 1.694000005722046
3.1716043949127197 0.5367765426635742 1.694000005722046
3.2317516803741455 0.7282257080078125 1.694000005722046
3.156686305999756 0.7426794767379761 2.5739998817443848
2.6187803745269775 0.9000390768051147 2.5739998817443848
2.5026822090148926 0.9016558527946472 2.5739998817443848
2.1506736278533936 0.8817274570465088 2.5739998817443848
1.5185436010360718 0.8041932582855225 2.5739998817443848
1.3960415124893188 0.790446937084198 2.5739998817443848
1.1333582401275635 0.7795071005821228 2.5739998817443848
1.1177729368209839 0.5946857333183289 2.5739998817443848
1.240387201309204 0.5376046895980835 2.5739998817443848
1.7250492572784424 0.4838545024394989 2.5739998817443848
2.0009307861328125 0.5103543996810913 2.5739998817443848
2.4728996753692627 0.46025633811950684 2.5739998817443848
3.0297818183898926 0.5682247281074524 2.5739998817443848
3.156686305999756 0.7426794767379761 2.5739998817443848
3.115213632583618 0.7306263446807861 3.4539999961853027
2.690070867538452 0.8475432395935059 3.4539999961853027
2.56314754486084 0.8308853507041931 3.4539999961853027
2.2493896484375 0.7989091277122498 3.4539999961853027
1.719179630279541 0.8030917048454285 3.4539999961853027
1.5871214866638184 0.8091557621955872 3.4539999961853027
1.3063398599624634 0.8175415992736816 3.4539999961853027
1.1265833377838135 0.7015566825866699 3.4539999961853027
1.2280082702636719 0.6410893797874451 3.4539999961853027
1.64556086063385 0.5132136344909668 3.4539999961853027
1.8919336795806885 0.494419664144516 3.4539999961853027
2.3555314540863037 0.471588134765625 3.4539999961853027
2.877533197402954 0.5822464227676392 3.4539999961853027
3.115213632583618 0.7306263446807861 3.4539999961853027
2.9263837337493896 0.7615821361541748 4.334000110626221
2.851393938064575 0.9544219970703125 4.334000110626221
2.7437477111816406 0.9476311206817627 4.334000110626221
2.360257625579834 0.9068260192871094 4.334000110626221
1.6436294317245483 0.9160593152046204 4.334000110626221
1.516403317451477 0.9277264475822449 4.334000110626221
1.3002188205718994 0.936275064945221 4.334000110626221
1.1700433492660522 0.8056385517120361 4.334000110626221
1.245208501815796 0.7319802045822144 4.334000110626221
1.5761232376098633 0.5469797849655151 4.334000110626221
1.7774850130081177 0.4971122741699219 4.334000110626221
2.2227869033813477 0.47514989972114563 4.334000110626221
2.712867259979248 0.6117802262306213 4.334000110626221
2.9263837337493896 0.7615821361541748 4.334000110626221
2.8719818592071533 0.873393714427948 5.214000225067139
2.6815521717071533 1.000007152557373 5.214000225067139
2.5803427696228027 0.9967612028121948 5.214000225067139
2.29063081741333 0.9961856603622437 5.214000225067139
1.7875211238861084 1.0123354196548462 5.214000225067139
1.6827565431594849 1.0119986534118652 5.214000225067139
1.4623920917510986 1.0047607421875 5.214000225067139
1.2469676733016968 0.8782963156700134 5.214000225067139
1.3141236305236816 0.7895897030830383 5.214000225067139
1.6277283430099487 0.5873369574546814 5.214000225067139
1.82981276512146 0.5387354493141174 5.214000225067139
2.2396414279937744 0.5196701884269714 5.214000225067139
2.6924829483032227 0.6872128844261169 5.214000225067139
2.8719818592071533 0.873393714427948 5.214000225067139
2.8591957092285156 0.7905523180961609 6.093999862670898
2.7829458713531494 1.0095880031585693 6.093999862670898
2.675955057144165 1.0093703269958496 6.093999862670898
2.3133955001831055 0.9736601114273071 6.093999862670898
1.7672275304794312 0.9133057594299316 6.093999862670898
1.6623646020889282 0.9137685298919678 6.093999862670898
1.4061238765716553 0.9242714047431946 6.093999862670898
1.1857527494430542 0.843474268913269 6.093999862670898
1.2570096254348755 0.760830819606781 6.093999862670898
1.5721063613891602 0.5644230246543884 6.093999862670898
1.7680152654647827 0.512514054775238 6.093999862670898
2.1815292835235596 0.49363136291503906 6.093999862670898
2.646170139312744 0.6442174315452576 6.093999862670898
2.8591957092285156 0.7905523180961609 6.093999862670898
2.9863719940185547 0.7189130187034607 6.973999977111816
2.923910140991211 0.9356313943862915 6.973999977111816
2.8174803256988525 0.9381957054138184 6.973999977111816
2.4348232746124268 0.9107255935668945 6.973999977111816
1.7514123916625977 0.8370963335037231 6.973999977111816
1.6387115716934204 0.832817792892456 6.973999977111816
1.4133329391479492 0.8300590515136719 6.973999977111816
1.091099500656128 0.7700614333152771 6.973999977111816
1.1653910875320435 0.6985817551612854 6.973999977111816
1.5314102172851562 0.5104288458824158 6.973999977111816
1.7634838819503784 0.47540581226348877 6.973999977111816
2.226980209350586 0.44618067145347595 6.973999977111816
2.723461389541626 0.5934186577796936 6.973999977111816
2.9863719940185547 0.7189130187034607 6.973999977111816
3.0442922115325928 0.7391303181648254 7.854000091552734
2.6125237941741943 0.8376721739768982 7.854000091552734
2.47586989402771 0.8245288133621216 7.854000091552734
2.141617774963379 0.8168626427650452 7.854000091552734
1.5936572551727295 0.8250259757041931 7.854000091552734
1.4768311977386475 0.8212920427322388 7.854000091552734
1.2271329164505005 0.8101232051849365 7.854000091552734
0.9824907183647156 0.6990612149238586 7.854000091552734
1.093511700630188 0.6307343244552612 7.854000091552734
1.5421417951583862 0.4892621338367462 7.854000091552734
1.796027421951294 0.45775386691093445 7.854000091552734
2.259310245513916 0.4030769169330597 7.854000091552734
2.776620626449585 0.585235059261322 7.854000091552734
3.0442922115325928 0.7391303181648254 7.854000091552734
3.1368274688720703 0.7743878364562988 8.734000205993652
2.575467348098755 0.8236177563667297 8.734000205993652
2.473238706588745 0.8107467293739319 8.734000205993652
2.1986968517303467 0.8286015391349792 8.734000205993652
1.621588945388794 0.8595935702323914 8.734000205993652
1.485120415687561 0.8566125631332397 8.734000205993652
1.1889307498931885 0.8482885360717773 8.734000205993652
0.9915981888771057 0.6942345499992371 8.734000205993652
1.1270235776901245 0.6339290142059326 8.734000205993652
1.6437679529190063 0.5166812539100647 8.734000205993652
1.8990507125854492 0.4639893174171448 8.734000205993652
2.3242084980010986 0.37915173172950745 8.734000205993652
2.8722856044769287 0.5926315784454346 8.734000205993652
3.1368274688720703 0.7743878364562988 8.734000205993652
3.156541347503662 0.8115288615226746 9.61400032043457
2.509009599685669 0.8129346370697021 9.61400032043457
2.4030826091766357 0.8089946508407593 9.61400032043457
2.0962910652160645 0.8806054592132568 9.61400032043457
1.4970625638961792 0.9614823460578918 9.61400032043457
1.369163155555725 0.9544653296470642 9.61400032043457
1.124111294746399 0.92307448387146 9.61400032043457
1.0035520792007446 0.7285457849502563 9.61400032043457
1.191451072692871 0.7020547389984131 9.61400032043457
1.7568304538726807 0.5826855301856995 9.61400032043457
1.9755117893218994 0.46982771158218384 9.61400032043457
2.3790929317474365 0.3872990906238556 9.61400032043457
2.943826675415039 0.6024351716041565 9.61400032043457
3.156541347503662 0.8115288615226746 9.61400032043457
3.1402034759521484 0.802922785282135 10.494000434875488
2.5169899463653564 0.7952207922935486 10.494000434875488
2.4213430881500244 0.78694748878479 10.494000434875488
2.1285126209259033 0.8510625958442688 10.494000434875488
1.5419847965240479 0.8941991925239563 10.494000434875488
1.414263129234314 0.8857407569885254 10.494000434875488
1.1278793811798096 0.8682043552398682 10.494000434875488
1.0327101945877075 0.7071923613548279 10.494000434875488
1.1863212585449219 0.6597187519073486 10.494000434875488
1.6933003664016724 0.5228887796401978 10.494000434875488
1.930726170539856 0.44599831104278564 10.494000434875488
2.3834176063537598 0.4202743172645569 10.494000434875488
2.9480931758880615 0.5873873233795166 10.494000434875488
3.1402034759521484 0.802922785282135 10.494000434875488
3.1481757164001465 0.6839195489883423 11.37399959564209
2.6784586906433105 0.8051592111587524 11.37399959564209
2.5606651306152344 0.7877504229545593 11.37399959564209
2.244450569152832 0.7836971879005432 11.37399959564209
1.692830204963684 0.7932161688804626 11.37399959564209
1.5679739713668823 0.7876507043838501 11.37399959564209
1.2676475048065186 0.7877591252326965 11.37399959564209
0.9649759531021118 0.6971933841705322 11.37399959564209
1.0697661638259888 0.6207051873207092 11.37399959564209
1.5599793195724487 0.4953773319721222 11.37399959564209
1.7855935096740723 0.4234912693500519 11.37399959564209
2.2643320560455322 0.388740211725235 11.37399959564209
2.851503610610962 0.5412037372589111 11.37399959564209
3.1481757164001465 0.6839195489883423 11.37399959564209
3.053215503692627 0.6705358624458313 12.253999710083008
2.6707544326782227 0.7805647253990173 12.253999710083008
2.5503761768341064 0.7716865539550781 12.253999710083008
2.2381865978240967 0.7608117461204529 12.253999710083008
1.6810353994369507 0.7610179781913757 12.253999710083008
1.5611388683319092 0.760064959526062 12.253999710083008
1.3133544921875 0.7478544116020203 12.253999710083008
1.096926212310791 0.6292283535003662 12.253999710083008
1.211005449295044 0.5702082514762878 12.253999710083008
1.654083013534546 0.43594837188720703 12.253999710083008
1.8593600988388062 0.3619629740715027 12.253999710083008
2.2806568145751953 0.38492751121520996 12.253999710083008
2.8222861289978027 0.5279226899147034 12.253999710083008
3.053215503692627 0.6705358624458313 12.253999710083008
2.9195210933685303 0.6474752426147461 13.133999824523926
2.790003538131714 0.8128678798675537 13.133999824523926
2.689917802810669 0.7999694347381592 13.133999824523926
2.4011034965515137 0.780587911605835 13.133999824523926
1.8776108026504517 0.7628026008605957 13.133999824523926
1.769114375114441 0.758743166923523 13.133999824523926
1.5394752025604248 0.7510828375816345 13.133999824523926
1.1947060823440552 0.6958354115486145 13.133999824523926
1.256055474281311 0.6213504076004028 13.133999824523926
1.5937541723251343 0.4139811098575592 13.133999824523926
1.7858898639678955 0.3436669111251831 13.133999824523926
2.205669403076172 0.33040112257003784 13.133999824523926
2.688681125640869 0.4976212978363037 13.133999824523926
2.9195210933685303 0.6474752426147461 13.133999824523926
2.854229211807251 0.6682669520378113 14.013999938964844
2.7803568840026855 0.8512234091758728 14.013999938964844
2.6812832355499268 0.8394016623497009 14.013999938964844
2.4052796363830566 0.8120001554489136 14.013999938964844
1.919934868812561 0.7817257642745972 14.013999938964844
1.8020424842834473 0.7829195857048035 14.013999938964844
1.531086802482605 0.7941576242446899 14.013999938964844
1.283376693725586 0.7103323936462402 14.013999938964844
1.3508659601211548 0.6272421479225159 14.013999938964844
1.6605852842330933 0.41488924622535706 14.013999938964844
1.8254271745681763 0.32675227522850037 14.013999938964844
2.219917058944702 0.30949002504348755 14.013999938964844
2.6561331748962402 0.5014989376068115 14.013999938964844
2.854229211807251 0.6682669520378113 14.013999938964844
2.8649048805236816 0.5265601277351379 14.894000053405762
2.8352956771850586 0.7195832133293152 14.894000053405762
2.7325799465179443 0.7110657691955566 14.894000053405762
2.426703453063965 0.6826371550559998 14.894000053405762
1.9097026586532593 0.676166832447052 14.894000053405762
1.8060522079467773 0.674956738948822 14.894000053405762
1.5895313024520874 0.6657174229621887 14.894000053405762
1.259353756904602 0.5995573401451111 14.894000053405762
1.3041573762893677 0.5191057920455933 14.894000053405762
1.6110422611236572 0.29110604524612427 14.894000053405762
1.7986295223236084 0.2351919263601303 14.894000053405762
2.1788856983184814 0.21115536987781525 14.894000053405762
2.6361477375030518 0.3872682750225067 14.894000053405762
2.8649048805236816 0.5265601277351379 14.894000053405762
2.1120564937591553 0.5630554556846619 0.02200000174343586
2.0733067989349365 0.5307747721672058 14.893998146057129
4 14 15 1 0
4 15 16 2 1
4 16 17 3 2
4 17 18 4 3
4 18 19 5 4
4 19 20 6 5
4 20 21 7 6
4 21 22 8 7
4 22 23 9 8
4 23 24 10 9
4 24 25 11 10
4 25 26 12 11
4 26 14 0 12
4 28 29 15 14
4 29 30 16 15
4 30 31 17 16
4 31 32 18 17
4 32 33 19 18
4 33 34 20 19
4 34 35 21 20
4 35 36 22 21
4 36 37 23 22
4 37 38 24 23
4 38 39 25 24
4 39 40 26 25
4 40 28 14 26
4 42 43 29 28
4 43 44 30 29
4 44 45 31 30
4 45 46 32 31
4 46 47 33 32
4 47 48 34 33
4 48 49 35 34
4 49 50 36 35
4 50 51 37 36
4 51 52 38 37
4 52 53 39 38
4 53 54 40 39
4 54 42 28 40
4 56 57 43 42
4 57 58 44 43
4 58 59 45 44
4 59 60 46 45
4 60 61 47 46
4 61 62 48 47
4 62 63 49 48
4 63 64 50 49
4 64 65 51 50
4 65 66 52 51
4 66 67 53 52
4 67 68 54 53
4 68 56 42 54
4 70 71 57 56
4 71 72 58 57
4 72 73 59 58
4 73 74 60 59
4 74 75 61 60
4 75 76 62 61
4 76 77 63 62
4 77 78 64 63
4 78 79 65 64
4 79 80 66 65
4 80 81 67 66
4 81 82 68 67
4 82 70 56 68
4 84 85 71 70
4 85 86 72 71
4 86 87 73 72
4 87 88 74 73
4 88 89 75 74
4 89 90 76 75
4 90 91 77 76
4 91 92 78 77
4 92 93 79 78
4 93 94 80 79
4 94 95 81 80
4 95 96 82 81
4 96 84 70 82
4 98 99 85 84
4 99 100 86 85
4 100 101 87 86
4 101 102 88 87
4 102 103 89 88
4 103 104 90 89
4 104 105 91 90
4 105 106 92 91
4 106 107 93 92
4 107 108 94 93
4 108 109 95 94
4 109 110 96 95
4 110 98 84 96
4 112 113 99 98
4 113 114 100 99
4 114 115 101 100
4 115 116 102 101
4 116 117 103 102
4 117 118 104 103
4 118 119 105 104
4 119 120 106 105
4 120 121 107 106
4 121 122 108 107
4 122 123 109 108
4 123 124 110 109
4 124 112 98 110
4 126 127 113 112
4 127 128 114 113
4 128 129 115 114
4 129 130 116 115
4 130 131 117 116
4 131 132 118 117
4 132 133 119 118
4 133 134 120 119
4 134 135 121 120
4 135 136 122 121
4 136 137 123 122
4 137 138 124 123
4 138 126 112 124
4 140 141 127 126
4 141 142 128 127
4 142 143 129 128
4 143 144 130 129
4 144 145 131 130
4 145 146 132 131
4 146 147 133 132
4 147 148 134 133
4 148 149 135 134
4 149 150 136 135
4 150 151 137 136
4 151 152 138 137
4 152 140 126 138
4 154 155 141 140
4 155 156 142 141
4 156 157 143 142
4 157 158 144 143
4 158 159 145 144
4 159 160 146 145
4 160 161 147 146
4 161 162 148 147
4 162 163 149 148
4 163 164 150 149
4 164 165 151 150
4 165 166 152 151
4 166 154 140 152
4 168 169 155 154
4 169 170 156 155
4 170 171 157 156
4 171 172 158 157
4 172 173 159 158
4 173 174 160 159
4 174 175 161 160
4 175 176 162 161
4 176 177 163 162
4 177 178 164 163
4 178 179 165 164
4 179 180 166 165
4 180 168 154 166
4 182 183 169 168
4 183 184 170 169
4 184 185 171 170
4 185 186 172 171
4 186 187 173 172
4 187 188 174 173
4 188 189 175 174
4 189 190 176 175
4 190 191 177 176
4 191 192 178 177
4 192 193 179 178
4 193 194 180 179
4 194 182 168 180
4 196 197 183 182
4 197 198 184 183
4 198 199 185 184
4 199 200 186 185
4 200 201 187 186
4 201 202 188 187
4 202 203 189 188
4 203 204 190 189
4 204 205 191 190
4 205 206 192 191
4 206 207 193 192
4 207 208 194 193
4 208 196 182 194
4 210 211 197 196
4 211 212 198 197
4 212 213 199 198
4 213 214 200 199
4 214 215 201 200
4 215 216 202 201
4 216 217 203 202
4 217 218 204 203
4 218 219 205 204
4 219 220 206 205
4 220 221 207 206
4 221 222 208 207
4 222 210 196 208
4 224 225 211 210
4 225 226 212 211
4 226 227 213 212
4 227 228 214 213
4 228 229 215 214
4 229 230 216 215
4 230 231 217 216
4 231 232 218 217
4 232 233 219 218
4 233 234 220 219
4 234 235 221 220
4 235 236 222 221
4 236 224 210 222
4 238 239 225 224
4 239 240 226 225
4 240 241 227 226
4 241 242 228 227
4 242 243 229 228
4 243 244 230 229
4 244 245 231 230
4 245 246 232 231
4 246 247 233 232
4 247 248 234 233
4 248 249 235 234
4 249 250 236 235
4 250 238 224 236
3 252 1 0
3 252 2 1
3 252 3 2
3 252 4 3
3 252 5 4
3 252 6 5
3 252 7 6
3 252 8 7
3 252 9 8
3 252 10 9
3 252 11 10
3 252 12 11
3 252 13 12
3 252 0 13
3 253 238 239
3 253 239 240
3 253 240 241
3 253 241 242
3 253 242 243
3 253 243 244
3 253 244 245
3 253 245 246
3 253 246 247
3 253 247 248
3 253 248 249
3 253 249 250
3 253 250 238
