ply
format ascii 1.0
comment Created by meshio v5.3.4, 2024-03-08T20:10:54.328169
element vertex 506
property float x
property float y
property float z
element face 482
property list uint8 int32 vertex_indices
end_header
3.255450487136841 0.6253231167793274 0.02199999988079071
2.724838972091675 0.8251124620437622 0.02199999988079071
2.3241024017333984 0.8093199729919434 0.02199999988079071
2.1054253578186035 0.7832115888595581 0.02199999988079071
1.8533276319503784 0.7443705797195435 0.02199999988079071
1.5127842426300049 0.684963047504425 0.02199999988079071
1.3213857412338257 0.6575258374214172 0.02199999988079071
1.0968106985092163 0.6300209164619446 0.02199999988079071
1.105800747871399 0.39557117223739624 0.02199999988079071
1.775330901145935 0.3274683356285095 0.02199999988079071
2.472914218902588 0.3901032507419586 0.02199999988079071
2.747697114944458 0.3725394010543823 0.02199999988079071
3.082603931427002 0.3944481313228607 0.02199999988079071
3.255450487136841 0.6253231167793274 0.02199999988079071
3.1878082752227783 0.7236606478691101 0.8140000104904175
2.531456708908081 0.8077945709228516 0.8140000104904175
2.1540005207061768 0.816217303276062 0.8140000104904175
1.9633270502090454 0.8138281106948853 0.8140000104904175
1.7493705749511719 0.797320544719696 0.8140000104904175
1.4515609741210938 0.7428719997406006 0.8140000104904175
1.2609308958053589 0.7055459022521973 0.8140000104904175
1.0264787673950195 0.6762305498123169 0.8140000104904175
1.141915202140808 0.43719419836997986 0.8140000104904175
1.8020213842391968 0.4944860637187958 0.8140000104904175
2.593305826187134 0.4883383810520172 0.8140000104904175
2.85292649269104 0.4602566361427307 0.8140000104904175
3.156332015991211 0.46165236830711365 0.8140000104904175
3.1878082752227783 0.7236606478691101 0.8140000104904175
3.222348213195801 0.7390662431716919 1.694000005722046
2.5926108360290527 0.8278946876525879 1.694000005722046
2.2341856956481934 0.8270843625068665 1.694000005722046
2.052837610244751 0.817762553691864 1.694000005722046
1.8388772010803223 0.8018239736557007 1.694000005722046
1.5144834518432617 0.778026282787323 1.694000005722046
1.3116649389266968 0.758985161781311 1.694000005722046
1.084267258644104 0.7276802659034729 1.694000005722046
1.1751972436904907 0.4980778992176056 1.694000005722046
1.8509057760238647 0.4944523274898529 1.694000005722046
2.5856761932373047 0.4882199466228485 1.694000005722046
2.836099863052368 0.4364544451236725 1.694000005722046
3.1566641330718994 0.5301017761230469 1.694000005722046
3.222348213195801 0.7390662431716919 1.694000005722046
3.14644455909729 0.7535831332206726 2.5739998817443848
2.6342267990112305 0.8993930220603943 2.5739998817443848
2.2928645610809326 0.893286943435669 2.5739998817443848
2.104793071746826 0.8772456645965576 2.5739998817443848
1.8807181119918823 0.8515952229499817 2.5739998817443848
1.5507984161376953 0.8083831071853638 2.5739998817443848
1.3516923189163208 0.7878689765930176 2.5739998817443848
1.1239128112792969 0.7783699631690979 2.5739998817443848
1.1405616998672485 0.5843783617019653 2.5739998817443848
1.7399680614471436 0.4854641556739807 2.5739998817443848
2.4816629886627197 0.45809081196784973 2.5739998817443848
2.7260043621063232 0.44579920172691345 2.5739998817443848
3.0159361362457275 0.5609409213066101 2.5739998817443848
3.14644455909729 0.7535831332206726 2.5739998817443848
3.1215481758117676 0.7410818934440613 3.4539999961853027
2.7077133655548096 0.8496498465538025 3.4539999961853027
2.3666694164276123 0.8075796365737915 3.4539999961853027
2.213016986846924 0.7971041798591614 3.4539999961853027
2.037775993347168 0.793935239315033 3.4539999961853027
1.7515438795089722 0.8017802238464355 3.4539999961853027
1.5390355587005615 0.8115588426589966 3.4539999961853027
1.295809268951416 0.8173112273216248 3.4539999961853027
1.1422914266586304 0.6897907257080078 3.4539999961853027
1.6589325666427612 0.511955738067627 3.4539999961853027
2.3644633293151855 0.4713154137134552 3.4539999961853027
2.586819887161255 0.4821144938468933 3.4539999961853027
2.8649699687957764 0.5752409100532532 3.4539999961853027
3.1215481758117676 0.7410818934440613 3.4539999961853027
2.9380736351013184 0.7690932750701904 4.334000110626221
2.8645224571228027 0.9547132849693298 4.334000110626221
2.521491289138794 0.9239093661308289 4.334000110626221
2.3075575828552246 0.9020649194717407 4.334000110626221
2.0509698390960693 0.8908501863479614 4.334000110626221
1.678734540939331 0.9127994775772095 4.334000110626221
1.4752941131591797 0.931071937084198 4.334000110626221
1.2929872274398804 0.9358459115028381 4.334000110626221
1.1798782348632812 0.7908671498298645 4.334000110626221
1.5861704349517822 0.5431944727897644 4.334000110626221
2.2316336631774902 0.4758665859699249 4.334000110626221
2.440211772918701 0.5144367814064026 4.334000110626221
2.7014012336730957 0.6047542095184326 4.334000110626221
2.9380736351013184 0.7690932750701904 4.334000110626221
2.881746768951416 0.8834946155548096 5.214000225067139
2.6952919960021973 1.000557541847229 5.214000225067139
2.405032157897949 0.9947429299354553 5.214000225067139
2.2543578147888184 0.99715256690979 5.214000225067139
2.080176830291748 1.0047521591186523 5.214000225067139
1.8147540092468262 1.0121313333511353 5.214000225067139
1.6461845636367798 1.0114367008209229 5.214000225067139
1.4531574249267578 1.004258394241333 5.214000225067139
1.2573121786117554 0.861893355846405 5.214000225067139
1.6377071142196655 0.5834320187568665 5.214000225067139
2.2479248046875 0.5204351544380188 5.214000225067139
2.4536807537078857 0.5557054877281189 5.214000225067139
2.6821534633636475 0.679046094417572 5.214000225067139
2.881746768951416 0.8834946155548096 5.214000225067139
2.870185136795044 0.7984704375267029 6.093999862670898
2.7961134910583496 1.008899211883545 6.093999862670898
2.4617490768432617 0.9920939803123474 6.093999862670898
2.2664809226989746 0.9672215580940247 6.093999862670898
2.0543510913848877 0.9366282820701599 6.093999862670898
1.7932312488555908 0.9138083457946777 6.093999862670898
1.6230063438415527 0.9147059321403503 6.093999862670898
1.3953454494476318 0.9246689677238464 6.093999862670898
1.197087287902832 0.8288789391517639 6.093999862670898
1.5819000005722046 0.5604845285415649 6.093999862670898
2.1895911693573 0.49480605125427246 6.093999862670898
2.3851165771484375 0.5388444662094116 6.093999862670898
2.6347155570983887 0.6373501420021057 6.093999862670898
2.870185136795044 0.7984704375267029 6.093999862670898
2.9990994930267334 0.7265569567680359 6.973999977111816
2.9368419647216797 0.9346200823783875 6.973999977111816
2.5962514877319336 0.926299512386322 6.973999977111816
2.38189697265625 0.9049375653266907 6.973999977111816
2.1248762607574463 0.8746158480644226 6.973999977111816
1.7820136547088623 0.8389033079147339 6.973999977111816
1.6007441282272339 0.8320568203926086 6.973999977111816
1.4038491249084473 0.8299204111099243 6.973999977111816
1.0990958213806152 0.7581992745399475 6.973999977111816
1.5439682006835938 0.5082134008407593 6.973999977111816
2.2361226081848145 0.44594690203666687 6.973999977111816
2.446058511734009 0.476283460855484 6.973999977111816
2.709595203399658 0.5875433683395386 6.973999977111816
2.9990994930267334 0.7265569567680359 6.973999977111816
3.051867723464966 0.7516164183616638 7.854000091552734
2.631896495819092 0.8396705389022827 7.854000091552734
2.2665998935699463 0.8154682517051697 7.854000091552734
2.102881908416748 0.81807541847229 7.854000091552734
1.9165281057357788 0.8258597254753113 7.854000091552734
1.6237990856170654 0.8259729146957397 7.854000091552734
1.4357173442840576 0.8198829293251038 7.854000091552734
1.2165931463241577 0.8094592094421387 7.854000091552734
0.9994495511054993 0.6854550838470459 7.854000091552734
1.5557090044021606 0.48698681592941284 7.854000091552734
2.2684617042541504 0.4033401608467102 7.854000091552734
2.4783504009246826 0.45993492007255554 7.854000091552734
2.7623395919799805 0.5783790946006775 7.854000091552734
3.051867723464966 0.7516164183616638 7.854000091552734
3.1412549018859863 0.7869996428489685 8.734000205993652
2.590383768081665 0.825829029083252 8.734000205993652
2.3095223903656006 0.8182684779167175 8.734000205993652
2.1627237796783447 0.8330089449882507 8.734000205993652
1.9767531156539917 0.8535369038581848 8.734000205993652
1.6563844680786133 0.8600887656211853 8.734000205993652
1.4366158246994019 0.8553143739700317 8.734000205993652
1.1767866611480713 0.8477219343185425 8.734000205993652
1.0146279335021973 0.6822503209114075 8.734000205993652
1.6587423086166382 0.5146017670631409 8.734000205993652
2.332491397857666 0.38130971789360046 8.734000205993652
2.547752857208252 0.46115925908088684 8.734000205993652
2.8563082218170166 0.5858455300331116 8.734000205993652
3.1412549018859863 0.7869996428489685 8.734000205993652
3.14754581451416 0.8223442435264587 9.61400032043457
2.5234711170196533 0.8152909874916077 9.61400032043457
2.2177093029022217 0.8466481566429138 9.61400032043457
2.056702136993408 0.8904500603675842 9.61400032043457
1.856337070465088 0.9301418662071228 9.61400032043457
1.5311050415039062 0.9615988731384277 9.61400032043457
1.3263336420059204 0.9497334361076355 9.61400032043457
1.1143401861190796 0.9218883514404297 9.61400032043457
1.0345169305801392 0.721652090549469 9.61400032043457
1.769091248512268 0.5766022205352783 9.61400032043457
2.387991189956665 0.3908413350582123 9.61400032043457
2.626591682434082 0.4648391306400299 9.61400032043457
2.927027463912964 0.5946455597877502 9.61400032043457
3.14754581451416 0.8223442435264587 9.61400032043457
3.1325836181640625 0.8090459704399109 10.295999526977539
2.535620927810669 0.8013017773628235 10.295999526977539
2.254267930984497 0.8183423280715942 10.295999526977539
2.101977825164795 0.8599256277084351 10.295999526977539
1.9166584014892578 0.9023004174232483 10.295999526977539
1.600569486618042 0.9374160766601562 10.295999526977539
1.3853998184204102 0.9359374642372131 10.295999526977539
1.1436858177185059 0.916451096534729 10.295999526977539
1.0761929750442505 0.7207056283950806 10.295999526977539
1.7423698902130127 0.5572155117988586 10.295999526977539
2.35789155960083 0.40636831521987915 10.295999526977539
2.593283176422119 0.4749242961406708 10.295999526977539
2.922785997390747 0.5849630832672119 10.295999526977539
3.1325836181640625 0.8090459704399109 10.295999526977539
3.1232378482818604 0.7969325184822083 10.515999794006348
2.5144762992858887 0.7948871850967407 10.515999794006348
2.2314493656158447 0.820795476436615 10.515999794006348
2.0699357986450195 0.8492287993431091 10.515999794006348
1.8772482872009277 0.8703563213348389 10.515999794006348
1.5508458614349365 0.8730849027633667 10.515999794006348
1.3033664226531982 0.8828080892562866 10.515999794006348
1.0423310995101929 0.8817492127418518 10.515999794006348
1.0646573305130005 0.6960377097129822 10.515999794006348
1.6973979473114014 0.5216051340103149 10.515999794006348
2.3672077655792236 0.41771572828292847 10.515999794006348
2.5968832969665527 0.48600709438323975 10.515999794006348
2.9326889514923096 0.5821014046669006 10.515999794006348
3.1232378482818604 0.7969325184822083 10.515999794006348
3.1455297470092773 0.7728621959686279 10.736000061035156
2.558669328689575 0.8055857419967651 10.736000061035156
2.279771089553833 0.8108658790588379 10.736000061035156
2.1195874214172363 0.8400406837463379 10.736000061035156
1.9164745807647705 0.854559063911438 10.736000061035156
1.5896518230438232 0.8487580418586731 10.736000061035156
1.3777014017105103 0.8456323742866516 10.736000061035156
1.1400718688964844 0.8347698450088501 10.736000061035156
1.033719539642334 0.680310845375061 10.736000061035156
1.6647344827651978 0.5024743676185608 10.736000061035156
2.357058525085449 0.41553443670272827 10.736000061035156
2.585263729095459 0.484210342168808 10.736000061035156
2.9223289489746094 0.5789366364479065 10.736000061035156
3.1455297470092773 0.7728621959686279 10.736000061035156
3.14052414894104 0.7681253552436829 10.956000328063965
2.5762898921966553 0.7969260215759277 10.956000328063965
2.2804460525512695 0.7947303056716919 10.956000328063965
2.1219685077667236 0.8188369870185852 10.956000328063965
1.922796368598938 0.8335719108581543 10.956000328063965
1.6046391725540161 0.8273476958274841 10.956000328063965
1.4031981229782104 0.8202084302902222 10.956000328063965
1.1711105108261108 0.8092541694641113 10.956000328063965
1.0391305685043335 0.6619949340820312 10.956000328063965
1.665840744972229 0.4938659071922302 10.956000328063965
2.3523008823394775 0.41014203429222107 10.956000328063965
2.5747480392456055 0.47748181223869324 10.956000328063965
2.9075939655303955 0.5663998126983643 10.956000328063965
3.14052414894104 0.7681253552436829 10.956000328063965
3.166626214981079 0.7624071836471558 11.175999641418457
2.580519914627075 0.7904563546180725 11.175999641418457
2.2716848850250244 0.7872617244720459 11.175999641418457
2.1055586338043213 0.7996730804443359 11.175999641418457
1.9095425605773926 0.8049240112304688 11.175999641418457
1.5648741722106934 0.8094568252563477 11.175999641418457
1.313675045967102 0.8215394020080566 11.175999641418457
1.067553997039795 0.8182145357131958 11.175999641418457
1.0538586378097534 0.6383554339408875 11.175999641418457
1.6779621839523315 0.47951745986938477 11.175999641418457
2.3686397075653076 0.4137991666793823 11.175999641418457
2.582958936691284 0.4868163466453552 11.175999641418457
2.9266202449798584 0.5614628195762634 11.175999641418457
3.166626214981079 0.7624071836471558 11.175999641418457
3.155665159225464 0.6922067403793335 11.395999908447266
2.7115986347198486 0.8104102611541748 11.395999908447266
2.389106512069702 0.7774037718772888 11.395999908447266
2.227733850479126 0.7800069451332092 11.395999908447266
2.0334441661834717 0.7818318605422974 11.395999908447266
1.7204445600509644 0.78156578540802 11.395999908447266
1.506993055343628 0.7837495803833008 11.395999908447266
1.2546172142028809 0.7890891432762146 11.395999908447266
1.0005418062210083 0.663629949092865 11.395999908447266
1.593180537223816 0.4845883846282959 11.395999908447266
2.2857460975646973 0.39267122745513916 11.395999908447266
2.500974178314209 0.46090206503868103 11.395999908447266
2.835531711578369 0.5379857420921326 11.395999908447266
3.155665159225464 0.6922067403793335 11.395999908447266
3.1174275875091553 0.6999174356460571 11.616000175476074
2.6956448554992676 0.7940257787704468 11.616000175476074
2.3884329795837402 0.7804809212684631 11.616000175476074
2.22214937210083 0.7822113037109375 11.616000175476074
2.019404411315918 0.7822613716125488 11.616000175476074
1.7177995443344116 0.7738486528396606 11.616000175476074
1.5223870277404785 0.7681353092193604 11.616000175476074
1.2821054458618164 0.7628790736198425 11.616000175476074
1.027113437652588 0.6374800801277161 11.616000175476074
1.6231664419174194 0.458870530128479 11.616000175476074
2.290456533432007 0.40025758743286133 11.616000175476074
2.502562999725342 0.47240498661994934 11.616000175476074
2.812673807144165 0.5322932004928589 11.616000175476074
3.1174275875091553 0.6999174356460571 11.616000175476074
3.103410243988037 0.6987452507019043 11.836000442504883
2.7311999797821045 0.8300568461418152 11.836000442504883
2.312175989151001 0.7828410267829895 11.836000442504883
2.1268794536590576 0.7673500180244446 11.836000442504883
1.9323184490203857 0.7606317400932312 11.836000442504883
1.6379672288894653 0.7564290761947632 11.836000442504883
1.4410531520843506 0.7539567351341248 11.836000442504883
1.2152962684631348 0.7450504302978516 11.836000442504883
1.0761361122131348 0.6073266863822937 11.836000442504883
1.6692453622817993 0.4391419589519501 11.836000442504883
2.331413745880127 0.412855327129364 11.836000442504883
2.5401782989501953 0.4834328293800354 11.836000442504883
2.8143105506896973 0.5241227149963379 11.836000442504883
3.103410243988037 0.6987452507019043 11.836000442504883
3.0864064693450928 0.6857039928436279 12.055999755859375
2.6946563720703125 0.8139156103134155 12.055999755859375
2.3052377700805664 0.7727531790733337 12.055999755859375
2.1354000568389893 0.764100193977356 12.055999755859375
1.9511865377426147 0.7588433027267456 12.055999755859375
1.667061448097229 0.7499393820762634 12.055999755859375
1.4725202322006226 0.7445749640464783 12.055999755859375
1.23167085647583 0.7372990846633911 12.055999755859375
1.0864304304122925 0.602073609828949 12.055999755859375
1.6709593534469604 0.43880894780158997 12.055999755859375
2.335089921951294 0.3986206650733948 12.055999755859375
2.5364036560058594 0.4633696377277374 12.055999755859375
2.797293186187744 0.5180262923240662 12.055999755859375
3.0864064693450928 0.6857039928436279 12.055999755859375
3.06064510345459 0.6799818873405457 12.276000022888184
2.6496365070343018 0.7795564532279968 12.276000022888184
2.3341612815856934 0.7630050182342529 12.276000022888184
2.180346727371216 0.7574177384376526 12.276000022888184
1.9946082830429077 0.75398850440979 12.276000022888184
1.7004525661468506 0.7521488666534424 12.276000022888184
1.5077810287475586 0.7486822605133057 12.276000022888184
1.281314492225647 0.7384594678878784 12.276000022888184
1.1271551847457886 0.6107426285743713 12.276000022888184
1.6769706010818481 0.4298616349697113 12.276000022888184
2.294243574142456 0.38864409923553467 12.276000022888184
2.500969171524048 0.448907732963562 12.276000022888184
2.8083109855651855 0.5245727300643921 12.276000022888184
3.06064510345459 0.6799818873405457 12.276000022888184
3.04829740524292 0.6897336840629578 12.496000289916992
2.668102979660034 0.7786546945571899 12.496000289916992
2.370460271835327 0.7565759420394897 12.496000289916992
2.223041296005249 0.7477614879608154 12.496000289916992
2.044386386871338 0.7414318919181824 12.496000289916992
1.751960277557373 0.738234281539917 12.496000289916992
1.5467188358306885 0.7388564944267273 12.496000289916992
1.2929426431655884 0.7407885789871216 12.496000289916992
1.140576720237732 0.6272777318954468 12.496000289916992
1.6632826328277588 0.4333987236022949 12.496000289916992
2.270167112350464 0.38197559118270874 12.496000289916992
2.472625494003296 0.4416543245315552 12.496000289916992
2.7777085304260254 0.5180688500404358 12.496000289916992
3.04829740524292 0.6897336840629578 12.496000289916992
3.0200841426849365 0.688583254814148 12.715999603271484
2.7154035568237305 0.7883798480033875 12.715999603271484
2.3677704334259033 0.7655292749404907 12.715999603271484
2.2063162326812744 0.7631702423095703 12.715999603271484
2.0270893573760986 0.7632433176040649 12.715999603271484
1.7663829326629639 0.7577778100967407 12.715999603271484
1.5964772701263428 0.7494533061981201 12.715999603271484
1.3842995166778564 0.7402719259262085 12.715999603271484
1.1627382040023804 0.6314998865127563 12.715999603271484
1.6506657600402832 0.41540202498435974 12.715999603271484
2.2787156105041504 0.3654405176639557 12.715999603271484
2.4791409969329834 0.4225652813911438 12.715999603271484
2.7582316398620605 0.5182693600654602 12.715999603271484
3.0200841426849365 0.688583254814148 12.715999603271484
2.9926939010620117 0.671375036239624 12.935999870300293
2.734133720397949 0.7998510003089905 12.935999870300293
2.4383087158203125 0.769231379032135 12.935999870300293
2.279350519180298 0.7640243768692017 12.935999870300293
2.089850425720215 0.7629827857017517 12.935999870300293
1.8082587718963623 0.759573221206665 12.935999870300293
1.6359583139419556 0.751885175704956 12.935999870300293
1.4295505285263062 0.7425459027290344 12.935999870300293
1.1750224828720093 0.6441448926925659 12.935999870300293
1.6411983966827393 0.40599027276039124 12.935999870300293
2.2454144954681396 0.3529922664165497 12.935999870300293
2.446287155151367 0.4112072288990021 12.935999870300293
2.721745014190674 0.5105500221252441 12.935999870300293
2.9926939010620117 0.671375036239624 12.935999870300293
2.9305830001831055 0.6561670303344727 13.156000137329102
2.7698490619659424 0.8107009530067444 13.156000137329102
2.4837028980255127 0.7853001952171326 13.156000137329102
2.333514451980591 0.7770197987556458 13.156000137329102
2.153728485107422 0.7701579928398132 13.156000137329102
1.8786572217941284 0.7620521783828735 13.156000137329102
1.705562949180603 0.7558364868164062 13.156000137329102
1.5056979656219482 0.7495429515838623 13.156000137329102
1.2053290605545044 0.6765764355659485 13.156000137329102
1.6155316829681396 0.406794011592865 13.156000137329102
2.2199063301086426 0.33368951082229614 13.156000137329102
2.4139199256896973 0.3902767300605774 13.156000137329102
2.676723003387451 0.4923240840435028 13.156000137329102
2.9305830001831055 0.6561670303344727 13.156000137329102
2.9107887744903564 0.6759395003318787 13.37600040435791
2.767862319946289 0.8271164894104004 13.37600040435791
2.4821419715881348 0.798317551612854 13.37600040435791
2.3329272270202637 0.7910123467445374 13.37600040435791
2.1588237285614014 0.7839888334274292 13.37600040435791
1.9042165279388428 0.7664692997932434 13.37600040435791
1.72462797164917 0.7619649767875671 13.37600040435791
1.4886255264282227 0.7701752185821533 13.37600040435791
1.2441701889038086 0.6708638668060303 13.37600040435791
1.6434739828109741 0.4000486433506012 13.37600040435791
2.2398886680603027 0.3348369300365448 13.37600040435791
2.4307398796081543 0.3901844620704651 13.37600040435791
2.6823184490203857 0.4967266917228699 13.37600040435791
2.9107887744903564 0.6759395003318787 13.37600040435791
2.894383430480957 0.686603307723999 13.595999717712402
2.707712411880493 0.8491289019584656 13.595999717712402
2.422248601913452 0.8236487507820129 13.595999717712402
2.276106357574463 0.8134790658950806 13.595999717712402
2.1041805744171143 0.8035481572151184 13.595999717712402
1.8442491292953491 0.7913479804992676 13.595999717712402
1.6727001667022705 0.7871022820472717 13.595999717712402
1.464202642440796 0.7835158705711365 13.595999717712402
1.2395663261413574 0.6751927137374878 13.595999717712402
1.6381362676620483 0.40255507826805115 13.595999717712402
2.2327492237091064 0.3342062532901764 13.595999717712402
2.4188947677612305 0.3942529559135437 13.595999717712402
2.6698145866394043 0.5014145374298096 13.595999717712402
2.894383430480957 0.686603307723999 13.595999717712402
2.871741533279419 0.6815283298492432 13.815999984741211
2.7688729763031006 0.8542376160621643 13.815999984741211
2.470559597015381 0.8275070190429688 13.815999984741211
2.3224687576293945 0.8163768649101257 13.815999984741211
2.1468100547790527 0.8061720728874207 13.815999984741211
1.883502721786499 0.7930011749267578 13.815999984741211
1.7105844020843506 0.7881903052330017 13.815999984741211
1.4996510744094849 0.7833760380744934 13.815999984741211
1.2412726879119873 0.6995378732681274 13.815999984741211
1.6377516984939575 0.4150165319442749 13.815999984741211
2.217743396759033 0.30544257164001465 13.815999984741211
2.4041712284088135 0.36995187401771545 13.815999984741211
2.651475667953491 0.48753947019577026 13.815999984741211
2.871741533279419 0.6815283298492432 13.815999984741211
2.8510959148406982 0.6636782884597778 14.03600025177002
2.783041477203369 0.8522589802742004 14.03600025177002
2.5132129192352295 0.8124868869781494 14.03600025177002
2.377283811569214 0.7962043881416321 14.03600025177002
2.209390163421631 0.7858253717422485 14.03600025177002
1.937012791633606 0.7813685536384583 14.03600025177002
1.753337025642395 0.783494234085083 14.03600025177002
1.5491136312484741 0.7838048338890076 14.03600025177002
1.292534351348877 0.6974793672561646 14.03600025177002
1.6626060009002686 0.41355040669441223 14.03600025177002
2.2128281593322754 0.3084944486618042 14.03600025177002
2.411698579788208 0.35282450914382935 14.03600025177002
2.6326489448547363 0.48333168029785156 14.03600025177002
2.8510959148406982 0.6636782884597778 14.03600025177002
2.8402576446533203 0.6516755819320679 14.255999565124512
2.7789254188537598 0.8353390693664551 14.255999565124512
2.5113837718963623 0.8023742437362671 14.255999565124512
2.374007225036621 0.7874996066093445 14.255999565124512
2.2104475498199463 0.7741343975067139 14.255999565124512
1.949588418006897 0.7679632306098938 14.255999565124512
1.7805144786834717 0.7670468688011169 14.255999565124512
1.5867847204208374 0.7626767158508301 14.255999565124512
1.3068783283233643 0.6683916449546814 14.255999565124512
1.650656819343567 0.36451321840286255 14.255999565124512
2.231444835662842 0.27631574869155884 14.255999565124512
2.4121510982513428 0.336816668510437 14.255999565124512
2.62280535697937 0.4740365445613861 14.255999565124512
2.8402576446533203 0.6516755819320679 14.255999565124512
2.8465468883514404 0.6100677847862244 14.47599983215332
2.752092123031616 0.7858064770698547 14.47599983215332
2.4772818088531494 0.759456217288971 14.47599983215332
2.346040964126587 0.7378994822502136 14.47599983215332
2.185513496398926 0.722661018371582 14.47599983215332
1.929288387298584 0.7153311967849731 14.47599983215332
1.765308141708374 0.7127925157546997 14.47599983215332
1.5775450468063354 0.708551824092865 14.47599983215332
1.282383918762207 0.6295012831687927 14.47599983215332
1.6323986053466797 0.3497045040130615 14.47599983215332
2.2258949279785156 0.2633824348449707 14.47599983215332
2.410982847213745 0.31651976704597473 14.47599983215332
2.6342806816101074 0.43450722098350525 14.47599983215332
2.8465468883514404 0.6100677847862244 14.47599983215332
2.855438470840454 0.5810736417770386 14.696000099182129
2.7858903408050537 0.7521775960922241 14.696000099182129
2.5131497383117676 0.7236749529838562 14.696000099182129
2.3679027557373047 0.7171967625617981 14.696000099182129
2.1968204975128174 0.7102866172790527 14.696000099182129
1.9367709159851074 0.700840413570404 14.696000099182129
1.7788606882095337 0.6896480917930603 14.696000099182129
1.5944918394088745 0.6767337322235107 14.696000099182129
1.2594599723815918 0.6250221133232117 14.696000099182129
1.6037178039550781 0.32908689975738525 14.696000099182129
2.197774648666382 0.2564775347709656 14.696000099182129
2.3917295932769775 0.3013674318790436 14.696000099182129
2.627882957458496 0.4133758842945099 14.696000099182129
2.855438470840454 0.5810736417770386 14.696000099182129
2.870880365371704 0.5341737866401672 14.916000366210938
2.807969808578491 0.7090452313423157 14.916000366210938
2.4855496883392334 0.6861997842788696 14.916000366210938
2.33898663520813 0.6791781187057495 14.916000366210938
2.179324150085449 0.6702396273612976 14.916000366210938
1.934851050376892 0.6546875834465027 14.916000366210938
1.7608962059020996 0.6511522531509399 14.916000366210938
1.5344284772872925 0.6577456593513489 14.916000366210938
1.2624558210372925 0.5789160132408142 14.916000366210938
1.6193641424179077 0.28704261779785156 14.916000366210938
2.188295841217041 0.23378896713256836 14.916000366210938
2.389979600906372 0.2718093693256378 14.916000366210938
2.6288669109344482 0.38102081418037415 14.916000366210938
2.870880365371704 0.5341737866401672 14.916000366210938
2.9223783016204834 0.5324971079826355 15.13599967956543
2.7952029705047607 0.6746160984039307 15.13599967956543
2.5018837451934814 0.6565538644790649 15.13599967956543
2.3568427562713623 0.6491420269012451 15.13599967956543
2.184169292449951 0.6424614787101746 15.13599967956543
1.9153952598571777 0.6375547647476196 15.13599967956543
1.745519757270813 0.633160412311554 15.13599967956543
1.5540294647216797 0.623285174369812 15.13599967956543
1.241019606590271 0.5463209748268127 15.13599967956543
1.6118460893630981 0.2657172977924347 15.13599967956543
2.2302796840667725 0.22100883722305298 15.13599967956543
2.4206955432891846 0.27389195561408997 15.13599967956543
2.6659598350524902 0.3834526538848877 15.13599967956543
2.9223783016204834 0.5324971079826355 15.13599967956543
2.9455056190490723 0.49598756432533264 15.355999946594238
2.8331968784332275 0.6514143943786621 15.355999946594238
2.4954655170440674 0.6239200234413147 15.355999946594238
2.339686632156372 0.6145057678222656 15.355999946594238
2.1695797443389893 0.6075819134712219 15.355999946594238
1.912272334098816 0.5942264795303345 15.355999946594238
1.7480111122131348 0.5833154320716858 15.355999946594238
1.559786319732666 0.5692936182022095 15.355999946594238
1.2375679016113281 0.49404582381248474 15.355999946594238
1.6282155513763428 0.22331763803958893 15.355999946594238
2.2391088008880615 0.19141605496406555 15.355999946594238
2.422697067260742 0.25140485167503357 15.355999946594238
2.679900646209717 0.3527206778526306 15.355999946594238
2.9455056190490723 0.49598756432533264 15.355999946594238
2.1881372928619385 0.5903787016868591 0.02200000174343586
2.170076608657837 0.4810115396976471 15.356001853942871
4 14 15 1 0
4 15 16 2 1
4 16 17 3 2
4 17 18 4 3
4 18 19 5 4
4 19 20 6 5
4 20 21 7 6
4 21 22 8 7
4 22 23 9 8
4 23 24 10 9
4 24 25 11 10
4 25 26 12 11
4 26 14 0 12
4 28 29 15 14
4 29 30 16 15
4 30 31 17 16
4 31 32 18 17
4 32 33 19 18
4 33 34 20 19
4 34 35 21 20
4 35 36 22 21
4 36 37 23 22
4 37 38 24 23
4 38 39 25 24
4 39 40 26 25
4 40 28 14 26
4 42 43 29 28
4 43 44 30 29
4 44 45 31 30
4 45 46 32 31
4 46 47 33 32
4 47 48 34 33
4 48 49 35 34
4 49 50 36 35
4 50 51 37 36
4 51 52 38 37
4 52 53 39 38
4 53 54 40 39
4 54 42 28 40
4 56 57 43 42
4 57 58 44 43
4 58 59 45 44
4 59 60 46 45
4 60 61 47 46
4 61 62 48 47
4 62 63 49 48
4 63 64 50 49
4 64 65 51 50
4 65 66 52 51
4 66 67 53 52
4 67 68 54 53
4 68 56 42 54
4 70 71 57 56
4 71 72 58 57
4 72 73 59 58
4 73 74 60 59
4 74 75 61 60
4 75 76 62 61
4 76 77 63 62
4 77 78 64 63
4 78 79 65 64
4 79 80 66 65
4 80 81 67 66
4 81 82 68 67
4 82 70 56 68
4 84 85 71 70
4 85 86 72 71
4 86 87 73 72
4 87 88 74 73
4 88 89 75 74
4 89 90 76 75
4 90 91 77 76
4 91 92 78 77
4 92 93 79 78
4 93 94 80 79
4 94 95 81 80
4 95 96 82 81
4 96 84 70 82
4 98 99 85 84
4 99 100 86 85
4 100 101 87 86
4 101 102 88 87
4 102 103 89 88
4 103 104 90 89
4 104 105 91 90
4 105 106 92 91
4 106 107 93 92
4 107 108 94 93
4 108 109 95 94
4 109 110 96 95
4 110 98 84 96
4 112 113 99 98
4 113 114 100 99
4 114 115 101 100
4 115 116 102 101
4 116 117 103 102
4 117 118 104 103
4 118 119 105 104
4 119 120 106 105
4 120 121 107 106
4 121 122 108 107
4 122 123 109 108
4 123 124 110 109
4 124 112 98 110
4 126 127 113 112
4 127 128 114 113
4 128 129 115 114
4 129 130 116 115
4 130 131 117 116
4 131 132 118 117
4 132 133 119 118
4 133 134 120 119
4 134 135 121 120
4 135 136 122 121
4 136 137 123 122
4 137 138 124 123
4 138 126 112 124
4 140 141 127 126
4 141 142 128 127
4 142 143 129 128
4 143 144 130 129
4 144 145 131 130
4 145 146 132 131
4 146 147 133 132
4 147 148 134 133
4 148 149 135 134
4 149 150 136 135
4 150 151 137 136
4 151 152 138 137
4 152 140 126 138
4 154 155 141 140
4 155 156 142 141
4 156 157 143 142
4 157 158 144 143
4 158 159 145 144
4 159 160 146 145
4 160 161 147 146
4 161 162 148 147
4 162 163 149 148
4 163 164 150 149
4 164 165 151 150
4 165 166 152 151
4 166 154 140 152
4 168 169 155 154
4 169 170 156 155
4 170 171 157 156
4 171 172 158 157
4 172 173 159 158
4 173 174 160 159
4 174 175 161 160
4 175 176 162 161
4 176 177 163 162
4 177 178 164 163
4 178 179 165 164
4 179 180 166 165
4 180 168 154 166
4 182 183 169 168
4 183 184 170 169
4 184 185 171 170
4 185 186 172 171
4 186 187 173 172
4 187 188 174 173
4 188 189 175 174
4 189 190 176 175
4 190 191 177 176
4 191 192 178 177
4 192 193 179 178
4 193 194 180 179
4 194 182 168 180
4 196 197 183 182
4 197 198 184 183
4 198 199 185 184
4 199 200 186 185
4 200 201 187 186
4 201 202 188 187
4 202 203 189 188
4 203 204 190 189
4 204 205 191 190
4 205 206 192 191
4 206 207 193 192
4 207 208 194 193
4 208 196 182 194
4 210 211 197 196
4 211 212 198 197
4 212 213 199 198
4 213 214 200 199
4 214 215 201 200
4 215 216 202 201
4 216 217 203 202
4 217 218 204 203
4 218 219 205 204
4 219 220 206 205
4 220 221 207 206
4 221 222 208 207
4 222 210 196 208
4 224 225 211 210
4 225 226 212 211
4 226 227 213 212
4 227 228 214 213
4 228 229 215 214
4 229 230 216 215
4 230 231 217 216
4 231 232 218 217
4 232 233 219 218
4 233 234 220 219
4 234 235 221 220
4 235 236 222 221
4 236 224 210 222
4 238 239 225 224
4 239 240 226 225
4 240 241 227 226
4 241 242 228 227
4 242 243 229 228
4 243 244 230 229
4 244 245 231 230
4 245 246 232 231
4 246 247 233 232
4 247 248 234 233
4 248 249 235 234
4 249 250 236 235
4 250 238 224 236
4 252 253 239 238
4 253 254 240 239
4 254 255 241 240
4 255 256 242 241
4 256 257 243 242
4 257 258 244 243
4 258 259 245 244
4 259 260 246 245
4 260 261 247 246
4 261 262 248 247
4 262 263 249 248
4 263 264 250 249
4 264 252 238 250
4 266 267 253 252
4 267 268 254 253
4 268 269 255 254
4 269 270 256 255
4 270 271 257 256
4 271 272 258 257
4 272 273 259 258
4 273 274 260 259
4 274 275 261 260
4 275 276 262 261
4 276 277 263 262
4 277 278 264 263
4 278 266 252 264
4 280 281 267 266
4 281 282 268 267
4 282 283 269 268
4 283 284 270 269
4 284 285 271 270
4 285 286 272 271
4 286 287 273 272
4 287 288 274 273
4 288 289 275 274
4 289 290 276 275
4 290 291 277 276
4 291 292 278 277
4 292 280 266 278
4 294 295 281 280
4 295 296 282 281
4 296 297 283 282
4 297 298 284 283
4 298 299 285 284
4 299 300 286 285
4 300 301 287 286
4 301 302 288 287
4 302 303 289 288
4 303 304 290 289
4 304 305 291 290
4 305 306 292 291
4 306 294 280 292
4 308 309 295 294
4 309 310 296 295
4 310 311 297 296
4 311 312 298 297
4 312 313 299 298
4 313 314 300 299
4 314 315 301 300
4 315 316 302 301
4 316 317 303 302
4 317 318 304 303
4 318 319 305 304
4 319 320 306 305
4 320 308 294 306
4 322 323 309 308
4 323 324 310 309
4 324 325 311 310
4 325 326 312 311
4 326 327 313 312
4 327 328 314 313
4 328 329 315 314
4 329 330 316 315
4 330 331 317 316
4 331 332 318 317
4 332 333 319 318
4 333 334 320 319
4 334 322 308 320
4 336 337 323 322
4 337 338 324 323
4 338 339 325 324
4 339 340 326 325
4 340 341 327 326
4 341 342 328 327
4 342 343 329 328
4 343 344 330 329
4 344 345 331 330
4 345 346 332 331
4 346 347 333 332
4 347 348 334 333
4 348 336 322 334
4 350 351 337 336
4 351 352 338 337
4 352 353 339 338
4 353 354 340 339
4 354 355 341 340
4 355 356 342 341
4 356 357 343 342
4 357 358 344 343
4 358 359 345 344
4 359 360 346 345
4 360 361 347 346
4 361 362 348 347
4 362 350 336 348
4 364 365 351 350
4 365 366 352 351
4 366 367 353 352
4 367 368 354 353
4 368 369 355 354
4 369 370 356 355
4 370 371 357 356
4 371 372 358 357
4 372 373 359 358
4 373 374 360 359
4 374 375 361 360
4 375 376 362 361
4 376 364 350 362
4 378 379 365 364
4 379 380 366 365
4 380 381 367 366
4 381 382 368 367
4 382 383 369 368
4 383 384 370 369
4 384 385 371 370
4 385 386 372 371
4 386 387 373 372
4 387 388 374 373
4 388 389 375 374
4 389 390 376 375
4 390 378 364 376
4 392 393 379 378
4 393 394 380 379
4 394 395 381 380
4 395 396 382 381
4 396 397 383 382
4 397 398 384 383
4 398 399 385 384
4 399 400 386 385
4 400 401 387 386
4 401 402 388 387
4 402 403 389 388
4 403 404 390 389
4 404 392 378 390
4 406 407 393 392
4 407 408 394 393
4 408 409 395 394
4 409 410 396 395
4 410 411 397 396
4 411 412 398 397
4 412 413 399 398
4 413 414 400 399
4 414 415 401 400
4 415 416 402 401
4 416 417 403 402
4 417 418 404 403
4 418 406 392 404
4 420 421 407 406
4 421 422 408 407
4 422 423 409 408
4 423 424 410 409
4 424 425 411 410
4 425 426 412 411
4 426 427 413 412
4 427 428 414 413
4 428 429 415 414
4 429 430 416 415
4 430 431 417 416
4 431 432 418 417
4 432 420 406 418
4 434 435 421 420
4 435 436 422 421
4 436 437 423 422
4 437 438 424 423
4 438 439 425 424
4 439 440 426 425
4 440 441 427 426
4 441 442 428 427
4 442 443 429 428
4 443 444 430 429
4 444 445 431 430
4 445 446 432 431
4 446 434 420 432
4 448 449 435 434
4 449 450 436 435
4 450 451 437 436
4 451 452 438 437
4 452 453 439 438
4 453 454 440 439
4 454 455 441 440
4 455 456 442 441
4 456 457 443 442
4 457 458 444 443
4 458 459 445 444
4 459 460 446 445
4 460 448 434 446
4 462 463 449 448
4 463 464 450 449
4 464 465 451 450
4 465 466 452 451
4 466 467 453 452
4 467 468 454 453
4 468 469 455 454
4 469 470 456 455
4 470 471 457 456
4 471 472 458 457
4 472 473 459 458
4 473 474 460 459
4 474 462 448 460
4 476 477 463 462
4 477 478 464 463
4 478 479 465 464
4 479 480 466 465
4 480 481 467 466
4 481 482 468 467
4 482 483 469 468
4 483 484 470 469
4 484 485 471 470
4 485 486 472 471
4 486 487 473 472
4 487 488 474 473
4 488 476 462 474
4 490 491 477 476
4 491 492 478 477
4 492 493 479 478
4 493 494 480 479
4 494 495 481 480
4 495 496 482 481
4 496 497 483 482
4 497 498 484 483
4 498 499 485 484
4 499 500 486 485
4 500 501 487 486
4 501 502 488 487
4 502 490 476 488
3 504 1 0
3 504 2 1
3 504 3 2
3 504 4 3
3 504 5 4
3 504 6 5
3 504 7 6
3 504 8 7
3 504 9 8
3 504 10 9
3 504 11 10
3 504 12 11
3 504 13 12
3 504 0 13
3 505 490 491
3 505 491 492
3 505 492 493
3 505 493 494
3 505 494 495
3 505 495 496
3 505 496 497
3 505 497 498
3 505 498 499
3 505 499 500
3 505 500 501
3 505 501 502
3 505 502 490
